<svg width="171" height="30" fill="none" xmlns="http://www.w3.org/2000/svg"><path d="M74.3 20.046v-6.25c0-2.36-1.5-3.945-3.921-3.968a3.86 3.86 0 0 0-3.503 1.777 3.67 3.67 0 0 0-3.294-1.777 3.298 3.298 0 0 0-2.912 1.486v-1.25h-2.172v10h2.19v-5.55c0-1.732.959-2.645 2.444-2.645 1.486 0 2.167.936 2.167 2.627v5.55h2.177v-5.532c0-1.732 1-2.645 2.44-2.645s2.19.936 2.19 2.627v5.55H74.3zm32.407-9.973h-3.544V7.046h-2.19v3.027h-2.022v1.982h2.022V16.6c0 2.314.909 3.696 3.462 3.696a5.131 5.131 0 0 0 2.726-.773l-.622-1.86a3.972 3.972 0 0 1-1.918.564c-1.085 0-1.444-.668-1.444-1.668v-4.504h3.543l-.013-1.982zm18.5-.25a2.933 2.933 0 0 0-2.626 1.46v-1.21h-2.149v9.973h2.167v-5.591c0-1.668.709-2.568 2.131-2.568.466-.007.929.078 1.363.25l.668-2.046a4.589 4.589 0 0 0-1.554-.268zm-27.968 1.041a7.431 7.431 0 0 0-4.067-1.04c-2.526 0-4.166 1.208-4.166 3.181 0 1.627 1.209 2.627 3.44 2.94l1.022.146c1.185.164 1.753.455 1.753 1.041 0 .768-.79 1.21-2.271 1.21a5.292 5.292 0 0 1-3.33-1.042l-.986 1.691a7.207 7.207 0 0 0 4.316 1.296c2.88 0 4.543-1.364 4.543-3.255 0-1.754-1.313-2.672-3.48-2.982l-1.022-.145c-.936-.127-1.69-.314-1.69-.982 0-.668.708-1.163 1.899-1.163a6.426 6.426 0 0 1 3.107.85l.932-1.746zm58.094-1.04a2.947 2.947 0 0 0-2.617 1.458v-1.209h-2.144v9.973h2.144v-5.591c0-1.668.709-2.568 2.127-2.568a3.55 3.55 0 0 1 1.363.25l.668-2.046a4.591 4.591 0 0 0-1.541-.268zm-27.936 5.236c0 3.022 2.108 5.236 5.32 5.236a5.233 5.233 0 0 0 3.585-1.205l-1.045-1.75a4.42 4.42 0 0 1-2.604.91c-1.731 0-3.003-1.278-3.003-3.182 0-1.905 1.272-3.182 3.003-3.182a4.357 4.357 0 0 1 2.604.909l1.045-1.755a5.23 5.23 0 0 0-3.576-1.227c-3.212 0-5.32 2.21-5.32 5.236l-.009.01zm20.313 0v-5h-2.172v1.209a3.778 3.778 0 0 0-3.148-1.46c-2.794 0-4.998 2.192-4.998 5.237s2.19 5.236 4.998 5.236a3.785 3.785 0 0 0 3.148-1.464v1.21h2.181l-.009-4.968zm-8.069 0c0-1.755 1.145-3.182 3.021-3.182 1.818 0 3.003 1.363 3.003 3.181 0 1.819-1.208 3.182-3.003 3.182-1.876.01-3.021-1.422-3.021-3.181zm-26.174-5.237c-2.917 0-4.966 2.128-4.966 5.236 0 3.11 2.131 5.237 5.112 5.237a6.089 6.089 0 0 0 4.088-1.4l-1.063-1.623a4.747 4.747 0 0 1-2.916 1.04c-1.395 0-2.667-.644-2.981-2.44h7.406c0-.273.041-.54.041-.832 0-3.109-1.94-5.236-4.734-5.236l.013.018zm-.041 1.941c1.395 0 2.272.873 2.522 2.418h-5.166c.227-1.44 1.1-2.418 2.644-2.418zm54.397 3.296V6.063h-2.167v5.214a3.784 3.784 0 0 0-3.149-1.46c-2.794 0-4.997 2.192-4.997 5.237s2.189 5.236 4.997 5.236a3.793 3.793 0 0 0 3.149-1.463v1.209h2.167V15.06zm2.535 4.063a.66.66 0 0 1 .454.186.627.627 0 0 1 .137.69.564.564 0 0 1-.137.201.706.706 0 0 1-.204.141.662.662 0 0 1-.789-.228.647.647 0 0 1-.061-.604c.068-.15.19-.27.341-.336a.682.682 0 0 1 .268-.05h-.009zm0 1.123a.386.386 0 0 0 .191-.037.398.398 0 0 0 .154-.104.481.481 0 0 0 .147-.35.494.494 0 0 0-.301-.455.529.529 0 0 0-.386 0 .497.497 0 0 0-.259.655.462.462 0 0 0 .259.254.46.46 0 0 0 .204.037h-.009zm.041-.791a.264.264 0 0 1 .173.05.187.187 0 0 1 .063.14.158.158 0 0 1-.013.065.153.153 0 0 1-.037.054.23.23 0 0 1-.136.059l.191.223h-.15l-.182-.223h-.059v.223h-.123v-.587l.273-.004zm-.15.109v.159h.15a.113.113 0 0 0 .077 0 .064.064 0 0 0 .02-.027.074.074 0 0 0 .008-.032.074.074 0 0 0-.008-.033.064.064 0 0 0-.02-.026.217.217 0 0 0-.077 0l-.15-.041zm-10.486-4.505c0-1.754 1.145-3.181 3.021-3.181 1.818 0 3.003 1.363 3.003 3.181 0 1.819-1.208 3.182-3.003 3.182-1.89.01-3.021-1.422-3.021-3.181zm-73.242 0v-5h-2.167v1.21a3.766 3.766 0 0 0-3.135-1.446c-2.794 0-4.998 2.191-4.998 5.236 0 3.046 2.19 5.237 4.998 5.237a3.782 3.782 0 0 0 3.144-1.464v1.21h2.172l-.014-4.983zm-8.069 0c0-1.754 1.145-3.181 3.021-3.181 1.795 0 3.004 1.363 3.004 3.181 0 1.819-1.209 3.182-3.004 3.182-1.876 0-3.02-1.44-3.02-3.181z" fill="#231F20"/><path d="M30.822 3.201H17.704v23.58h13.117V3.202z" fill="#FF5F00"/><path d="M18.536 15a14.977 14.977 0 0 1 5.725-11.79A14.99 14.99 0 0 0 2.284 7.042a15.004 15.004 0 0 0 6.158 21.45 14.988 14.988 0 0 0 15.819-1.7A14.997 14.997 0 0 1 18.536 15z" fill="#EB001B"/><path d="M48.518 15a15.005 15.005 0 0 1-8.443 13.485 14.988 14.988 0 0 1-15.813-1.698 14.997 14.997 0 0 0 5.725-11.79 15.005 15.005 0 0 0-5.725-11.791 14.99 14.99 0 0 1 21.982 3.851 15.004 15.004 0 0 1 2.274 7.966v-.022zm-1.439 9.287V23.8h.195v-.095h-.49v.1h.2v.482h.095zm.959 0V23.7h-.128l-.177.418-.172-.418h-.155v.587h.086v-.455l.164.382h.114l.159-.382v.454h.109z" fill="#F79E1B"/></svg>